<?xml version="1.0" encoding="utf-8"?>
<!-- Generator: Adobe Illustrator 16.0.0, SVG Export Plug-In . SVG Version: 6.00 Build 0)  -->
<!DOCTYPE svg PUBLIC "-//W3C//DTD SVG 1.1//EN" "http://www.w3.org/Graphics/SVG/1.1/DTD/svg11.dtd">
<svg version="1.1" id="Layer_1" xmlns="http://www.w3.org/2000/svg" xmlns:xlink="http://www.w3.org/1999/xlink" x="0px" y="0px"
	 width="300.08px" height="300.063px" viewBox="0 0 300.08 300.063" enable-background="new 0 0 300.08 300.063"
	 xml:space="preserve">
<g>
	<path d="M102.638,0.006c31.599-0.008,63.206-0.008,94.804,0c0,34.265,0.007,68.529,0,102.794c34.212,0.007,68.425,0,102.638,0.007
		c-0.008,31.479-0.008,62.967-0.008,94.447c-34.205,0.008-68.418,0-102.63,0.008c0,34.266,0,68.529,0,102.802
		c-31.599-0.016-63.205,0-94.804-0.009c0-34.264-0.007-68.527-0.007-102.801c-34.206,0-68.418,0.015-102.624-0.007
		C0,165.774,0.007,134.295,0,102.814c34.206-0.022,68.418,0,102.631-0.015C102.638,68.535,102.638,34.271,102.638,0.006
		L102.638,0.006z"/>
	<path fill="#FFFFFF" d="M145.822,19.997c-0.705-1.537-0.201-3.156,0.565-4.552c3.379-0.252,6.208,1.553,8.437,3.892
		c3.296-0.943,6.564-3.386,10.143-2.19c1.546,1.121,2.801,2.621,4.456,3.609c1.746,1.047,3.572,2.614,3.491,4.85
		c-0.089,3.356-2.406,6.015-3.558,9.03c-0.469,1.292-0.49,3.164,0.973,3.817c2.368,0.624,4.888,0.772,7.063,2.012
		c1.345,3.899,1.44,8.333,0.208,12.269c-0.936,2.955-4.552,2.777-6.951,2.071c-0.401,1.656-0.786,3.55-2.383,4.493
		c-2.444,1.092-5.021-0.587-7.529-0.045c-2.689,0.468-5.364,1.471-8.119,0.892c-1.677-2.161-3.646-4.278-4.047-7.107
		c1.649-0.007,3.305,0.007,4.961-0.015c0.313-1.463,0.424-2.97,0.29-4.463c-2.511-0.549-4.702-1.916-7.018-2.948
		c0.06,2.272,0.653,4.522,0.475,6.802c-0.259,1.219-1.76,1.077-2.71,1.241c-2.74-0.504-4.53-3.141-4.76-5.8
		c-0.253-3.268-0.765-6.498-1.121-9.75c3.193,0.787,5.719,3.015,8.741,4.181c4.834-0.126,9.416-2.109,14.013-3.49
		c-2.102-0.446-4.381-0.579-6.216-1.813c-1.389-0.943-0.743-2.814-0.705-4.203c2.903-1.017,5.978-0.646,8.984-0.832
		c2.266-2.064,3.238-5.347,2.883-8.354c-3.95-0.387-7.806,0.809-11.496,2.049c0.267,0.23,0.817,0.691,1.091,0.921
		c2.355-0.438,5.354-2.199,7.396-0.253c-0.319,3.691-5.287,3.424-8.086,3.521c-1.145,1.054-1.998,2.354-2.771,3.698
		c-1.87-0.468-4.165-0.699-5.294-2.488C146.891,27.349,147.248,23.517,145.822,19.997L145.822,19.997z"/>
	<path fill="#FFFFFF" d="M118.486,19.551c3.35-1.626,7.872-1.403,10.635,1.277c2.799,2.473,5.25,5.347,7.151,8.555
		c-2.97,2.035-6.602,1.671-9.929,0.958C123.855,26.643,121.397,22.93,118.486,19.551L118.486,19.551z"/>
	<path fill="#EE1B2E" d="M71.648,29.54c4.805-2.688,9.565-5.451,14.362-8.154c4.404,7.604,8.8,15.216,13.3,22.761
		c0.929,1.62,2.258,3.223,2.021,5.221c-0.03,17.377,0.007,34.754-0.022,52.132c-16.323,0-32.646,0-48.969,0
		c-1.262,0.104-2.391-0.498-3.438-1.114C40.153,95.217,31.287,90.256,22.479,85.2c2.502-4.79,5.049-9.551,7.552-14.34
		c12.647,6.944,25.309,13.88,37.926,20.875c0.98,0.482,1.946,1.092,3.067,1.188c2.028-1.485,3.305-3.713,4.797-5.681
		C65.15,76.005,54.004,65.223,43.109,54.195c3.766-3.847,7.486-7.723,11.237-11.57C64.749,52.65,75.19,62.646,85.536,72.731
		c0.758,0.646,1.5,1.417,2.51,1.656c2.287-0.824,4.003-2.652,5.874-4.129c-1.344-3.424-3.349-6.528-5.095-9.751
		C83.123,50.17,77.322,39.892,71.648,29.54L71.648,29.54z"/>
	<path fill="#EE1B2E" d="M215.406,21.794c4.819,2.584,9.549,5.354,14.318,8.043c-6.915,11.949-13.792,23.92-20.72,35.861
		c-0.713,1.24-1.344,2.525-1.968,3.817c1.818,1.685,3.52,3.601,5.762,4.737c1.122,0.305,1.835-0.816,2.622-1.381
		c10.427-10.063,20.89-20.096,31.31-30.166c3.854,3.72,7.648,7.5,11.479,11.244c-10.737,10.938-21.78,21.58-32.467,32.571
		c1.403,1.916,2.614,4.032,4.448,5.578c1.003,0.816,2.25,0.006,3.215-0.454c12.41-6.965,24.835-13.909,37.274-20.815
		c2.858,4.56,5.718,9.119,8.599,13.664c-8.526,4.932-17.096,9.788-25.621,14.719c-1.872,1.01-3.691,2.532-5.948,2.302
		c-16.316-0.029-32.623-0.007-48.938-0.015c-0.016-17.318-0.023-34.629,0.008-51.946C204.972,40.716,210,31.121,215.406,21.794
		L215.406,21.794z"/>
	<path d="M167.262,45.284c1.915-0.053,3.862-0.215,5.771,0.133c0.504,1.225-0.595,2.183-1.255,3.074
		c-1.389,1.679-3.194,3.126-5.459,3.238C166.088,49.539,165.97,47.2,167.262,45.284L167.262,45.284z"/>
	<path fill="#FFFFFF" d="M113.444,46.791c2.681-1.203,5.027,1.122,7.671,1.27c2.963,0.201,5.896-0.438,8.763-1.106
		c1.389,0.958,2.458,2.272,3.007,3.877c-3.164,2.732-6.729,5.191-10.768,6.387c-1.76,0.639-3.186-0.803-4.24-1.998
		C115.842,52.769,113.6,50.132,113.444,46.791L113.444,46.791z"/>
	<path d="M159.115,46.999c0.394-0.052,1.166-0.164,1.56-0.215c-0.111,2.042-0.215,4.084-0.334,6.134
		c-0.343-0.015-1.018-0.029-1.352-0.038C159.048,50.92,159.101,48.959,159.115,46.999L159.115,46.999z"/>
	<path fill="#FFFFFF" d="M137.26,55.792c3.438,2.829,1.849,7.834,0.475,11.354c-3.126,7.084-6.876,13.991-11.927,19.895
		c-1.522,1.894-4.047,3.527-6.505,2.302c-3.461-1.255-7.33-5.429-4.953-9.194c0.832-1.752,2.941-1.76,4.538-2.31
		c2.622-0.69,4.99-2.22,6.736-4.292C130.004,67.978,134.223,62.23,137.26,55.792L137.26,55.792z"/>
	<path fill="#FFFFFF" d="M142.703,60.232c3.891,0.29,7.53,1.834,11.376,2.347c4.1,0.134,8.289,0,12.263-1.129
		c2.598-0.72,5.085-2.599,7.9-1.796c2.28,0.683,4.24,2.168,5.964,3.78c1.246,1.092,2.191,3.283,0.601,4.515
		c-3.563,3.015-6.913,6.446-9.267,10.508c-0.869,1.263,0.986,1.693,1.773,2.079c4.531,1.745,9.425,2.644,13.68,5.072
		c2.109,1.144,3.357,3.965,2.303,6.223c-2.042,1.872-5.081,1.99-7.701,1.745c-3.78-0.386-5.837-3.973-9.09-5.465
		c-2.072-0.988-4.182-2.31-6.543-2.265c-4.404,1.426-7.367,5.569-11.926,6.646c-3.357,0.891-6.774,1.864-10.264,1.871
		c-2.02-0.557-3.535-2.146-5.124-3.423c-1.196-1.122-2.74-2.05-3.208-3.72c3.23-0.35,6.536,0.75,9.692-0.357
		c3.587-1.046,7.144-2.414,10.167-4.656c-0.81-2.896-3.289-4.85-4.3-7.635c3.35-0.475,6.564,0.654,9.796,1.337
		c1.039,0.52,1.654-0.639,2.213-1.278c1.797-2.428,3.453-4.976,5.028-7.56c-6.047,1.575-11.779,4.693-18.144,4.716
		c-2.659-0.038-4.218-2.473-5.465-4.485C143.268,65.133,141.128,62.765,142.703,60.232L142.703,60.232z"/>
	<path fill="#FFFFFF" d="M10.248,124.373c0-1.493-0.119-4.04,2.057-3.921c4.449-0.149,8.912,0.044,13.367,0.097
		c1.582-0.119,3.075,0.728,3.906,2.064c4.702,7.07,9.795,13.873,14.793,20.742c6.231-7.196,11.058-15.573,17.742-22.412
		c5.458,0.037,10.909,0.296,16.359,0.4c0.668,6.209,0.356,12.469,0.371,18.699c-0.148,2.057,0.312,4.315-0.787,6.186
		c-4.27,8.355-8.495,16.731-12.743,25.1c-0.416,0.878-1.441,2.771,0.327,2.704c4.418,0.481,8.889,0.431,13.323,0.765
		c-0.03,1.412,0.563,2.963-0.275,4.256c-5.778,0.504-11.615,0.208-17.416,0.208c-1.588,0.126-1.485-1.761-1.5-2.837
		c-0.089-9.143-0.133-18.284-0.215-27.418c-5.347,6.453-9.78,13.642-15.231,20.015c-5.073-6.306-9.06-13.45-14.34-19.569
		c-0.527,9.81-0.126,19.649-0.431,29.469c-4.456,0.809-9.023,0.215-13.523,0.393c-1.864-0.187-4.077,0.312-5.644-0.937
		C10.078,160.391,10.359,142.374,10.248,124.373L10.248,124.373z"/>
	<path fill="#FFFFFF" d="M237.276,122.947c0.534-0.802,0.986-2.161,2.184-2.064c6.72-0.111,13.455-0.46,20.184-0.193
		c1.746-0.067,3.328,1.003,4.003,2.599c8.986,17.578,17.897,35.194,26.913,52.756c0.55,0.988,0.802,2.094,0.987,3.207
		c-5.682,0.699-11.429,0.573-17.14,0.477c-1.686-0.134-3.476,0.044-5.064-0.594c-1.746-2.682-2.273-6.246-4.522-8.511
		c-9.788-0.521-19.649-0.483-29.431,0.244c-1.479,2.614-2.777,5.326-4.04,8.052c-5.94,0.296-11.888,0.511-17.838,0.355
		c-1.299-0.015-2.636-0.305-3.564-1.277c-0.111-1.537,1.196-2.228,2.495-2.48c5.355-0.98,10.983-2.168,15.396-5.556
		c0-8.984,0.208-17.972,0.244-26.957c0.046-1.136-0.053-2.354,0.55-3.371C231.483,134.057,234.417,128.517,237.276,122.947
		L237.276,122.947z"/>
	<path fill="#FFFFFF" d="M184.394,131.591c7.761-4.805,17.021-7.73,26.193-6.372c4.337,0.691,9.016,1.01,12.876,3.238
		c0.156,3.587,0.602,7.255-0.075,10.805c-7.307-1.827-15.281-4.856-22.634-1.59c-5.904,2.444-8.556,10.034-5.815,15.729
		c1.389,3.498,4.791,5.703,8.362,6.482c2.422,0.565,5.287,1.122,7.502-0.387c0.733-1.299,0.088-2.806-0.009-4.188
		c-1.849-0.135-3.706-0.118-5.555-0.2c-0.868-3.097-1.232-6.402-0.328-9.536c6.091-0.141,12.188-0.416,18.271-0.104
		c1.233,0.015,1.225,1.752,1.307,2.658c0.021,6.647,0.029,13.302-0.022,19.955c-5.651,3.602-12.55,4.381-19.115,4.322
		c-7.323-0.111-14.928-1.463-21.083-5.652C184.32,155.028,184.274,143.31,184.394,131.591L184.394,131.591z"/>
	<path fill="#FFFFFF" d="M91.306,125.606c6.319-0.089,12.639,0.022,18.959,0.066c7.359,15.076,15.261,29.898,22.041,45.249
		c-5.488,0.802-11.265,1.329-16.708,0.126c-1.56-2.146-2.696-4.566-4.048-6.832c-7.322-0.148-14.644-0.334-21.967-0.349
		c-1.121,2.331-2.072,4.753-3.364,7.002c-0.995,0.617-2.272,0.237-3.379,0.313c-4.515-0.237-9.052,0.438-13.538-0.283
		c0.304-0.89,0.616-1.773,1.01-2.629C77.278,154.032,84.384,139.864,91.306,125.606L91.306,125.606z"/>
	<path fill="#FFFFFF" d="M124.241,126.386c0.179-0.149,0.55-0.438,0.729-0.587c4.589-0.23,9.186-0.193,13.782-0.371
		c8.125,7.285,16.22,14.592,24.366,21.855c0.051-7.01-0.053-14.028,0.051-21.039c5.734-0.771,11.646-1.18,17.378-0.178
		c-0.06,15.001-0.162,30.002-0.208,45.01c-4.968,0.914-10.04,0.498-15.061,0.395c-8.057-7.382-15.936-14.965-24.202-22.116
		c-0.504,7.204,0.029,14.415,0.082,21.625c-1.545,0.111-3.097,0.143-4.641,0.111c-4.181-8.695-8.704-17.243-12.736-25.999
		C123.803,138.861,123.877,132.609,124.241,126.386L124.241,126.386z"/>
	<path d="M250.309,137.688c3.35,7.054,6.67,14.125,10.011,21.181c-6.64,0.014-13.284,0.007-19.924,0.007
		C243.707,151.813,246.975,144.735,250.309,137.688L250.309,137.688z"/>
	<path d="M100.559,138.616c2.473,5.474,5.235,10.813,7.604,16.338c-4.679,0.974-9.595,0.734-14.311,0.12
		C95.925,149.525,98.309,144.097,100.559,138.616L100.559,138.616z"/>
	<path fill="#EE1B2E" d="M21.855,216.087c9.721-5.658,19.212-11.763,28.94-17.4c16.828-0.296,33.678-0.036,50.521-0.126
		c0.015,16.376-0.015,32.759,0.015,49.133c0.245,2.221-1.27,3.987-2.243,5.822c-4.82,8.519-9.536,17.096-14.221,25.688
		c-4.783-2.688-9.558-5.385-14.333-8.081c7.441-13.545,14.927-27.068,22.338-40.635c-1.708-1.836-3.698-3.364-5.733-4.813
		c-2.933,2.103-5.25,4.888-7.871,7.346c-8.496,8.517-17.014,17.021-25.532,25.522c-3.81-3.802-7.687-7.544-11.458-11.399
		c10.359-10.679,20.734-21.335,31.116-31.983c0.683-0.721,1.537-1.731,0.898-2.762c-1.024-1.836-2.361-3.604-4.099-4.806
		c-2.258,0.341-4.114,1.761-6.075,2.806c-11.54,6.507-23.043,13.071-34.621,19.502C26.957,225.295,24.358,220.713,21.855,216.087
		L21.855,216.087z"/>
	<path fill="#EE1B2E" d="M198.771,198.561c16.806,0,33.618,0.017,50.431-0.015c2.267-0.244,4.076,1.293,5.941,2.31
		c7.649,4.434,15.298,8.875,22.984,13.249c0.742,0.468,1.589,0.861,2.191,1.544c-2.555,4.709-5.318,9.305-7.976,13.963
		c-12.818-6.989-25.659-13.917-38.461-20.927c-0.729-0.381-1.471-0.759-2.279-0.922c-1.864,1.47-3.894,3.305-4.516,5.651
		c10.567,11.205,21.55,22.041,32.312,33.076c-3.906,3.772-7.836,7.521-11.764,11.266c-10.233-9.943-20.444-19.91-30.678-29.854
		c-0.698-0.668-1.552-1.367-2.592-1.174c-2.042,0.929-3.974,2.213-5.443,3.929c-0.364,1.106,0.216,2.161,0.727,3.104
		c7.033,12.305,14.036,24.625,21.01,36.961c-4.812,2.45-9.579,4.982-14.407,7.396c-5.651-10.004-11.718-19.792-17.385-29.772
		C198.622,231.764,198.823,215.152,198.771,198.561L198.771,198.561z"/>
	<path fill="#FFFFFF" d="M136.784,203.759c0.698-1.271,2.191-0.869,3.327-0.557c1.99,0.49,3.824,1.545,5.874,1.835
		c5.54,0.223,10.753-2.385,16.278-2.228c3.595,0.065,6.009,3.164,7.82,5.881c1.439,2.072,1.04,5.674-1.769,6.261
		c-6.721,1.285-13.329-3.758-20.013-1.33c-2.674,0.973-5.763,1.887-8.347,0.156C139.153,210.354,136.071,207.442,136.784,203.759
		L136.784,203.759z"/>
	<path fill="#FFFFFF" d="M148.622,226.409c0.201-3.95-0.668-8.272,1.612-11.801c4.9,0.641,9.149,5.229,8.703,10.286
		c5.688-0.387,10.864,3.305,13.747,7.961c1.737,2.814-0.944,5.548-1.53,8.272c-1.292,3.35-1.019,7.628-4.114,9.996
		c-1.277,1.076-1.212,2.919-1.664,4.404c-4.018,0.319-8.071-0.438-12.053,0.355c-2.77,0.356-5.347,1.493-8.05,2.095
		c-1.092-0.609-1.998-1.507-3.119-2.063c-1.062-0.305-1.679,0.927-2.489,1.357c-2.131-1.099-4.188-2.494-5.606-4.463
		c-0.438-5.732-0.586-11.511-1.463-17.214c-0.296-3.074-1.27-6.49,0.64-9.254c1.054,0.357,2.309,0.483,2.992,1.479
		c2.421,3.126,5.065,6.186,6.542,9.905c1.708,0.031,3.461,0.275,5.147-0.097c0.817-0.689,0.512-2.049,0.809-3.007
		c-2.161-0.319-4.337-0.454-6.513-0.669c-1.158-2.376-2.146-4.857-2.6-7.478C142.592,225.814,145.614,226.395,148.622,226.409
		L148.622,226.409z"/>
	<path fill="#FFFFFF" d="M116.904,237.252c1.167-3.772,0.111-7.798,1.278-11.547c4.872,1.246,9.654,5.404,9.513,10.781
		c-0.319,8.17-4.686,15.336-6.966,23.008c-0.973,2.739-0.023,5.948,2.101,7.871c1.649,0.327,3.209-0.416,4.679-1.047
		c6.187-3.007,13.204-3.595,19.984-3.914c3.757-0.29,7.374,0.989,11.116,0.989c2.815-0.038,5.406,1.239,8.17,1.587
		c2.242,0.254,4.425-0.475,6.646-0.629c2.212,0.622,4.158,2.688,4.091,5.101c-3.652,0.111-7.181-0.979-10.805-1.211
		c-5.384-0.408-10.731,0.81-15.862,2.333c-4.671,1.462-9.557,2.212-14.081,4.151c-3.631,1.469-7.515,3.497-11.54,2.331
		c-2.584-0.899-5.644-1.137-7.553-3.313c-2.636-2.985-7.805-4.345-7.827-9.045C110.176,255.127,115.352,246.608,116.904,237.252
		L116.904,237.252z"/>
	<path d="M157.415,237.898c0.223-2.393,1.291-5.496,4.046-5.875c1.367-0.481,2.704,0.186,4.011,0.534
		c0.237,2.675-0.305,5.341-1.521,7.725C161.528,240.297,159.42,239.115,157.415,237.898L157.415,237.898z"/>
	<path d="M142.807,241.768c1.5,0.081,3.038,0.245,4.292,1.15c0.082,2.703,1.708,4.901,3.142,7.055
		c-2.585,0.66-5.221,1.137-7.895,0.996C142.384,247.895,142.406,244.818,142.807,241.768L142.807,241.768z"/>
	<path fill="#FFFFFF" d="M180.279,242.859c1.939-1.508,3.795,0.6,5.489,1.448c2.212,1.277,5.049,2.673,5.339,5.554
		c0.268,7.441-3.135,14.526-2.593,21.996c-2.257,0.974-4.514-0.511-6.178-1.938c-1.248-1.181-2.629-2.532-2.808-4.337
		c-0.385-4.076,1.841-7.85,1.598-11.919C181.305,250.025,180.124,246.475,180.279,242.859L180.279,242.859z"/>
	<path d="M155.356,245.266c2.37-0.899,4.864-1.301,7.391-1.212c0.216,1.843,0.371,3.691,0.482,5.549
		c-2.658,0.815-5.436,0.414-8.11-0.097C155.148,248.086,155.224,246.676,155.356,245.266L155.356,245.266z"/>
</g>
</svg>
